<?xml version="1.0" encoding="utf-8"?> <!-- Generator: IcoMoon.io --> <!DOCTYPE svg PUBLIC "-//W3C//DTD SVG 1.1//EN" "http://www.w3.org/Graphics/SVG/1.1/DTD/svg11.dtd"> <svg width="16" height="16" viewBox="0 0 16 16" xmlns="http://www.w3.org/2000/svg" xmlns:xlink="http://www.w3.org/1999/xlink" fill="#000000"><g><path d="M 6,4.5A2.5,2.5 10800 1 0 11,4.5A2.5,2.5 10800 1 0 6,4.5zM0,4.5A2.5,2.5 10800 1 0 5,4.5A2.5,2.5 10800 1 0 0,4.5zM 12,9.5l0-1.5 c0-0.55-0.45-1-1-1l-2.5,0 L 2.5,7 L 1,7 c-0.55,0-1,0.45-1,1l0,5 c0,0.55, 0.45,1, 1,1l 10,0 c 0.55,0, 1-0.45, 1-1 l0-1.5 l 4,2.5L 16,7 L 12,9.5z M 10,12L 2,12 l0-3 l 8,0 L 10,12 z"></path></g></svg>