<?xml version="1.0" standalone="no"?>
<!DOCTYPE svg PUBLIC "-//W3C//DTD SVG 20010904//EN"
 "http://www.w3.org/TR/2001/REC-SVG-20010904/DTD/svg10.dtd">
<svg version="1.0" xmlns="http://www.w3.org/2000/svg"
 width="230.000000pt" height="209.000000pt" viewBox="0 0 230.000000 209.000000"
 preserveAspectRatio="xMidYMid meet">
<metadata>
Created by potrace 1.11, written by Peter Selinger 2001-2013
</metadata>
<g transform="translate(0.000000,209.000000) scale(0.100000,-0.100000)"
fill="#000000" stroke="none">
<path d="M1000 2074 c-118 -21 -150 -28 -213 -48 -199 -63 -383 -194 -506
-357 -278 -368 -279 -843 -3 -1215 115 -155 309 -296 484 -353 190 -60 355
-75 520 -46 90 15 220 52 228 65 3 4 25 17 50 28 186 87 329 203 423 345 39
59 107 196 107 217 0 6 8 23 18 37 15 23 17 53 17 218 0 125 -4 207 -13 240
-7 28 -20 77 -28 110 -22 85 -64 192 -96 244 -15 25 -28 48 -28 52 0 9 -86
128 -130 181 -31 36 -141 118 -159 118 -4 0 -19 10 -32 23 -35 34 -154 84
-265 113 -96 24 -306 40 -374 28z m245 -307 c23 -38 46 -72 52 -75 5 -4 47
-70 93 -147 45 -77 88 -144 94 -150 7 -5 51 -75 100 -154 48 -79 94 -150 102
-158 8 -8 21 -28 30 -44 14 -28 13 -32 -8 -62 -12 -18 -25 -34 -30 -37 -4 -3
-46 -66 -94 -140 -47 -74 -90 -137 -94 -140 -4 -3 -47 -65 -94 -139 -48 -74
-93 -139 -100 -146 -7 -7 -30 -40 -52 -74 l-39 -61 -223 0 c-176 0 -222 3
-216 12 4 7 114 166 244 353 130 187 244 352 254 366 l17 27 -269 409 c-147
225 -272 414 -276 421 -6 10 43 12 230 10 l237 -3 42 -68z"/>
</g>
</svg>
