<?xml version="1.0" standalone="no"?>
<!DOCTYPE svg PUBLIC "-//W3C//DTD SVG 20010904//EN"
 "http://www.w3.org/TR/2001/REC-SVG-20010904/DTD/svg10.dtd">
<svg version="1.0" xmlns="http://www.w3.org/2000/svg"
 width="170.000000pt" height="170.000000pt" viewBox="0 0 170.000000 170.000000"
 preserveAspectRatio="xMidYMid meet">
<metadata>
Created by potrace 1.11, written by Peter Selinger 2001-2013
</metadata>
<g transform="translate(0.000000,170.000000) scale(0.100000,-0.100000)"
fill="#000000" stroke="none">
<path d="M670 1664 c-299 -64 -538 -285 -632 -584 -20 -65 -23 -95 -23 -230 0
-135 3 -165 23 -230 95 -302 335 -523 634 -584 109 -23 273 -21 376 4 315 75
561 327 628 638 18 89 18 255 -2 350 -63 308 -330 571 -646 636 -94 20 -268
20 -358 0z m366 -84 c292 -75 508 -300 564 -587 20 -102 9 -282 -24 -378 -149
-439 -650 -643 -1071 -436 -194 96 -342 278 -395 487 -24 94 -26 248 -5 349
49 232 239 451 464 536 141 53 327 64 467 29z"/>
<path d="M540 1393 c1 -5 24 -45 53 -90 212 -333 271 -424 278 -429 5 -3 9
-11 9 -18 0 -7 -76 -131 -170 -276 -93 -144 -170 -266 -170 -271 0 -5 74 -9
165 -9 l165 0 42 60 c24 33 66 96 93 140 28 44 87 138 132 208 46 69 83 132
83 139 0 14 -72 129 -236 381 l-113 172 -166 0 c-91 0 -165 -3 -165 -7z"/>
</g>
</svg>
